<svg width="120" height="120" viewBox="0 0 120 120" fill="none" xmlns="http://www.w3.org/2000/svg">
<path fill-rule="evenodd" clip-rule="evenodd" d="M39.6 84H70C78.5 84 84.8 78.1 85.2 69.8C85.5 63.4 82.5 60.2 76.8 58C80.6 56.7 82.7 53.4 82.8 49.5C83 42.3 77.2 36 70.1 36H39.6V84ZM63 49.5H58.1V54.4H63C64.4 54.4 65.5 53.3 65.5 51.9C65.5 50.6 64.4 49.5 63 49.5ZM58.1 64.3H63.6C65.3 64.3 66.7 65.7 66.7 67.4C66.7 69.1 65.3 70.5 63.6 70.5H58.1V64.3Z" fill="#FF2D55"/>
<path fill-rule="evenodd" clip-rule="evenodd" d="M120 60C120 93.1 93.1 120 60 120C26.9 120 0 93.1 0 60C0 26.9 26.9 0 60 0C93.1 0 120 26.9 120 60ZM110.8 60C110.8 88 88.1 110.8 60 110.8C32 110.8 9.2 88.1 9.2 60C9.2 32 31.9 9.2 60 9.2C88 9.2 110.8 32 110.8 60Z" fill="#FF2D55"/>
</svg>
